<?xml version="1.0" standalone="no"?>
<!DOCTYPE svg PUBLIC "-//W3C//DTD SVG 20010904//EN"
 "http://www.w3.org/TR/2001/REC-SVG-20010904/DTD/svg10.dtd">
<svg version="1.0" xmlns="http://www.w3.org/2000/svg"
 width="1024.000000pt" height="1024.000000pt" viewBox="0 0 1024.000000 1024.000000"
 preserveAspectRatio="xMidYMid meet">
<metadata>
Created by potrace 1.11, written by Peter Selinger 2001-2013
</metadata>
<g transform="translate(0.000000,1024.000000) scale(0.100000,-0.100000)"
fill="#000000" stroke="none">
<path d="M3037 10204 c-1 -1 -38 -5 -82 -9 -131 -10 -335 -43 -455 -74 -239
-60 -512 -165 -694 -267 l-38 -22 791 -791 c435 -435 793 -791 796 -791 3 0
25 10 48 22 23 12 65 29 92 38 l50 16 3 932 2 932 -37 1 c-21 1 -51 3 -68 5
-32 4 -404 12 -408 8z"/>
<path d="M3828 10133 c-3 -7 -2 -1744 1 -1794 1 -11 13 -19 34 -23 17 -3 60
-19 94 -35 l62 -30 586 585 c322 322 585 589 585 594 0 5 -26 30 -57 57 -32
26 -60 51 -63 54 -12 13 -172 130 -240 175 -264 176 -600 325 -900 399 -36 9
-72 18 -82 21 -9 3 -18 1 -20 -3z"/>
<path d="M1390 9582 c-208 -162 -447 -412 -600 -628 -110 -155 -237 -384 -310
-559 -61 -146 -136 -382 -157 -494 -2 -14 -6 -28 -9 -33 -3 -4 -2 -9 3 -9 4
-1 628 -2 1385 -3 l1377 -1 15 55 c9 30 27 74 40 97 l25 43 -816 815 c-448
448 -818 815 -821 815 -4 -1 -63 -44 -132 -98z"/>
<path d="M4807 8634 l-586 -587 23 -46 c13 -25 31 -68 40 -96 l16 -50 895 0
c653 0 895 3 895 11 0 21 -41 178 -71 274 -92 293 -227 559 -436 860 -19 28
-91 118 -111 138 -7 8 -24 29 -38 48 -15 19 -30 34 -33 34 -4 0 -271 -264
-594 -586z"/>
<path d="M270 7567 c-1 -6 -4 -37 -8 -67 -9 -75 -8 -440 1 -520 4 -36 10 -82
12 -103 2 -20 11 -77 19 -125 35 -196 42 -225 111 -436 117 -358 319 -708 587
-1020 l34 -38 1062 1062 c584 584 1062 1067 1062 1073 0 7 -9 26 -19 43 -11
17 -27 57 -37 88 l-18 56 -1403 0 c-1103 0 -1403 -3 -1403 -13z"/>
<path d="M4289 7542 c-7 -20 -14 -39 -14 -42 -3 -18 -52 -111 -73 -140 -77
-106 -215 -207 -329 -241 -24 -7 -43 -17 -44 -23 -3 -36 -4 -2773 -1 -2783 3
-10 633 -13 3105 -13 l3100 0 -337 338 -337 337 -1507 0 -1507 1 -3 137 -3
137 28 1 c15 0 630 1 1366 1 735 0 1337 3 1337 7 0 3 -125 130 -278 282 l-277
276 -1075 1 c-591 0 -1081 1 -1088 1 -10 1 -12 32 -10 138 l3 138 943 0 c518
0 942 2 942 5 0 3 -125 130 -278 283 l-278 277 -667 0 -668 0 3 138 3 137 517
0 c284 0 519 3 522 5 3 3 -138 148 -313 322 l-317 318 -1226 -1 -1227 0 -12
-37z"/>
<path d="M2292 6118 c-834 -834 -1059 -1064 -1048 -1072 7 -6 58 -47 112 -92
270 -220 616 -406 946 -509 62 -20 127 -40 143 -45 58 -18 226 -52 324 -66 25
-3 57 -8 71 -10 103 -17 559 -25 630 -11 14 3 37 6 53 6 l27 1 0 1393 0 1393
-56 18 c-31 10 -72 26 -91 37 -18 10 -37 19 -41 19 -5 0 -486 -478 -1070
-1062z"/>
<path d="M1406 3203 c-1 -2 -31 -5 -67 -8 -78 -6 -158 -21 -224 -42 -263 -82
-384 -185 -483 -413 -49 -114 -47 -62 -47 -1414 l0 -1269 185 1 c102 0 194 1
205 1 20 1 20 8 20 443 0 388 2 442 15 439 8 -2 69 -15 135 -28 134 -27 389
-38 505 -22 187 26 386 106 522 209 171 130 289 372 325 669 10 76 10 410 1
492 -41 358 -181 628 -403 777 -94 63 -266 140 -295 132 -3 -1 -17 3 -31 8
-42 16 -351 37 -363 25z m301 -386 c116 -31 238 -130 291 -238 67 -137 94
-295 96 -554 0 -241 -24 -381 -91 -513 -91 -182 -268 -263 -562 -257 -156 3
-373 47 -437 87 -7 5 -10 199 -9 615 1 557 2 612 19 661 21 61 87 133 149 161
144 65 378 82 544 38z"/>
<path d="M3987 3204 c-1 -1 -36 -5 -77 -8 -41 -4 -82 -9 -90 -11 -8 -2 -26 -6
-40 -9 -69 -12 -193 -60 -263 -102 -175 -104 -299 -268 -370 -489 -36 -112
-54 -205 -72 -380 -5 -48 -6 -318 -1 -360 2 -16 7 -57 10 -90 6 -52 9 -71 22
-120 1 -5 5 -23 8 -40 7 -37 47 -155 74 -217 134 -306 486 -499 912 -501 74 0
301 12 309 17 3 2 31 7 61 11 113 14 245 47 360 90 25 9 53 19 62 22 15 4 17
25 16 189 0 101 -4 184 -8 184 -5 0 -46 -16 -92 -36 -130 -56 -299 -97 -458
-112 -134 -13 -349 -7 -420 12 -206 53 -344 189 -403 396 -15 53 -30 131 -28
147 1 5 347 8 770 8 423 0 772 3 776 7 4 4 8 105 10 225 4 311 -24 461 -122
657 -84 169 -210 303 -365 389 -103 58 -231 99 -353 113 -57 6 -223 12 -228 8z
m191 -379 c76 -10 188 -61 248 -113 35 -29 90 -108 117 -164 55 -114 69 -160
91 -295 l12 -73 -579 0 -579 0 7 67 c10 99 31 196 56 268 68 190 212 297 424
312 44 3 81 6 82 8 4 2 69 -3 121 -10z"/>
<path d="M8675 3190 c-157 -23 -248 -50 -363 -108 -174 -87 -310 -218 -377
-362 -15 -30 -31 -63 -36 -74 -20 -35 -59 -170 -74 -255 -23 -130 -31 -223
-29 -361 2 -217 23 -365 73 -512 86 -255 212 -402 441 -518 70 -35 190 -83
190 -75 0 2 12 0 26 -6 64 -24 209 -37 369 -34 207 4 342 34 500 112 235 116
362 266 450 528 36 107 48 172 61 315 13 140 6 482 -11 510 -2 3 -6 23 -9 45
-22 135 -80 288 -153 402 -45 71 -185 213 -210 213 -3 0 -14 6 -22 14 -33 29
-177 97 -256 121 -44 14 -123 31 -174 39 -100 15 -314 18 -396 6z m300 -364
c125 -11 190 -32 278 -90 136 -91 197 -211 237 -471 9 -64 6 -420 -6 -495 -12
-82 -55 -214 -89 -276 -65 -115 -202 -209 -333 -228 -24 -3 -47 -8 -52 -11
-12 -7 -235 -8 -289 0 -73 9 -134 24 -176 42 -62 26 -150 88 -184 130 -58 70
-112 203 -127 313 -2 19 -7 46 -10 60 -10 45 -12 373 -3 445 14 114 19 137 40
210 40 133 96 215 192 279 93 61 162 83 307 95 76 6 108 6 215 -3z"/>
<path d="M8765 2241 c-209 -97 -139 -412 92 -411 88 1 158 46 195 128 64 142
-41 302 -197 302 -28 0 -68 -9 -90 -19z"/>
<path d="M5280 3166 c0 -2 40 -109 89 -238 329 -862 453 -1187 466 -1218 8
-19 67 -172 131 -340 64 -168 129 -339 145 -380 l29 -75 211 0 211 0 90 235
c50 129 96 249 103 265 7 17 74 192 150 390 75 198 142 374 149 390 7 17 30
75 50 130 21 55 42 109 47 120 5 11 68 173 139 360 72 187 134 346 137 353 4
10 -40 12 -217 10 l-223 -3 -164 -455 c-91 -250 -169 -464 -173 -475 -5 -11
-73 -197 -151 -412 -78 -216 -145 -393 -150 -393 -4 0 -11 10 -14 23 -4 12
-15 45 -25 72 -10 28 -33 91 -50 140 -17 50 -35 99 -40 110 -5 11 -20 54 -35
95 -14 41 -67 188 -116 325 -50 138 -110 304 -133 370 -24 66 -83 229 -131
363 l-88 242 -218 0 c-121 0 -219 -2 -219 -4z"/>
</g>
</svg>
