<?xml version="1.0" standalone="no"?><!DOCTYPE svg PUBLIC "-//W3C//DTD SVG 1.1//EN" "http://www.w3.org/Graphics/SVG/1.1/DTD/svg11.dtd"><svg width="100%" height="100%" viewBox="0 0 2481 2481" version="1.1" xmlns="http://www.w3.org/2000/svg" xmlns:xlink="http://www.w3.org/1999/xlink" xml:space="preserve" style="fill-rule:evenodd;clip-rule:evenodd;stroke-linejoin:round;stroke-miterlimit:1.41421;"><path d="M812.248,482.715C826.646,473.617 842.624,466.839 859.724,462.991L859.724,13.071C832.227,9.835 804.297,8 775.907,8C649.634,8 531.032,40.925 428,98.468L812.248,482.715Z" style="fill:#aeb836;fill-rule:nonzero;"/><path d="M1476.24,577.602C1450.12,451.558 1390.77,337.671 1307.82,245.393L1022.2,531.017C1031.01,545.186 1037.59,560.834 1041.38,577.602L1476.24,577.602Z" style="fill:#d4d22d;fill-rule:nonzero;"/><path d="M764.855,530.11L369.624,134.88C221.231,237.58 113.46,394.816 75.591,577.612L745.105,577.612C748.979,560.487 755.757,544.509 764.855,530.11" style="fill:#a3ac38;fill-rule:nonzero;"/><path d="M1259.21,196.281C1167.27,111.903 1053.2,51.302 926.775,24.111L926.775,462.97C943.518,466.767 959.191,473.342 973.334,482.16L1259.21,196.281Z" style="fill:#bec131;fill-rule:nonzero;"/><path d="M859.729,759.252C842.961,755.48 827.314,748.88 813.145,740.062L298.088,1255.14C424.769,1369.06 592.275,1438.48 775.913,1438.48C804.302,1438.48 832.232,1436.64 859.729,1433.43L859.729,759.252Z" style="fill:#6a712f;fill-rule:nonzero;"/><path d="M764.292,691.199C755.474,677.03 748.9,661.383 745.128,644.615L65.089,644.615C62.26,670.455 60.68,696.653 60.68,723.233C60.68,909.52 132.111,1079.19 248.955,1206.54L764.292,691.199Z" style="fill:#8a9237;fill-rule:nonzero;"/><path d="M2266.25,1275.01L1535.78,1275.01L1535.78,1207.99L2199.23,1207.99L2062.38,1071.14L1535.78,1071.14L1535.78,1004.11L1995.36,1004.11L1858.51,867.265L1535.78,867.265L1535.78,800.243L1791.49,800.243L1635.88,644.638L1041.39,644.638C1028.52,701.594 983.721,746.395 926.765,759.239L926.765,1438.49L2429.73,1438.49L2266.25,1275.01Z" style="fill:#b1bb35;fill-rule:nonzero;"/><path d="M1191.17,862.362C1290.07,862.362 1370.37,942.662 1370.37,1041.57C1370.37,1140.44 1290.07,1220.74 1191.17,1220.74C1092.27,1220.74 1011.97,1140.44 1011.97,1041.57C1011.97,942.662 1092.27,862.362 1191.17,862.362" style="fill:#fcf9fc;fill-rule:nonzero;"/><path d="M1191.17,988.704C1220.32,988.704 1244.02,1012.38 1244.02,1041.56C1244.02,1070.71 1220.32,1094.41 1191.17,1094.41C1162.02,1094.41 1138.34,1070.71 1138.34,1041.56C1138.34,1012.38 1162.02,988.704 1191.17,988.704" style="fill:#160d1c;fill-rule:nonzero;"/><g transform="matrix(25.484,0,0,25.484,-17634.4,-5267.92)"><path d="M697.486,303.498L697.486,280.477C697.486,280.016 697.528,279.558 697.612,279.104C697.696,278.649 697.909,278.073 698.251,277.374C698.594,276.675 699.059,276.06 699.646,275.529C700.233,274.998 701.113,274.54 702.287,274.156C703.462,273.771 704.824,273.579 706.376,273.579C707.173,273.579 707.952,273.649 708.714,273.789C709.475,273.929 710.307,274.243 711.209,274.732C712.11,275.222 712.889,275.857 713.546,276.64C714.203,277.423 714.752,278.524 715.192,279.942C715.632,281.361 715.853,283 715.853,284.859C715.853,286.984 715.562,288.797 714.982,290.3C714.402,291.802 713.602,292.917 712.582,293.644C711.561,294.371 710.524,294.891 709.468,295.206C708.413,295.52 707.249,295.677 705.977,295.677C704.398,295.677 702.881,295.468 701.428,295.048L701.428,303.498L697.486,303.498ZM701.428,291.296C702.909,291.869 704.426,292.155 705.977,292.155C706.858,292.155 707.609,292.071 708.231,291.904C708.853,291.736 709.465,291.414 710.066,290.939C710.667,290.464 711.125,289.72 711.439,288.706C711.754,287.693 711.911,286.41 711.911,284.859C711.911,283.196 711.754,281.815 711.439,280.718C711.125,279.621 710.674,278.821 710.087,278.318C709.5,277.814 708.92,277.472 708.347,277.29C707.774,277.108 707.117,277.018 706.376,277.018C703.077,277.018 701.428,278.087 701.428,280.225L701.428,291.296Z" style="fill:#160d1c;fill-rule:nonzero;"/><path d="M721.136,284.901C721.136,277.353 724.288,273.579 730.592,273.579C730.606,273.579 730.62,273.579 730.634,273.579C733.499,273.579 735.788,274.516 737.5,276.389C739.212,278.262 740.068,280.771 740.068,283.915C740.068,284.95 740.026,285.942 739.943,286.893L725.182,286.893C725.658,290.527 727.67,292.344 731.221,292.344C734.114,292.344 736.581,291.813 738.622,290.75L738.622,294.315C736.413,295.251 733.918,295.719 731.137,295.719C731.095,295.719 731.053,295.719 731.011,295.719C729.753,295.719 728.593,295.562 727.531,295.248C726.468,294.933 725.431,294.413 724.417,293.686C723.404,292.959 722.604,291.844 722.017,290.342C721.43,288.839 721.136,287.025 721.136,284.901ZM725.12,283.328L736.127,283.328C736.071,282.616 735.949,281.934 735.76,281.284C735.571,280.634 735.285,279.974 734.9,279.303C734.516,278.632 733.96,278.097 733.233,277.699C732.507,277.301 731.64,277.101 730.634,277.101C728.831,277.101 727.506,277.566 726.661,278.496C725.815,279.425 725.301,281.036 725.12,283.328Z" style="fill:#160d1c;fill-rule:nonzero;"/><path d="M742.133,273.915L746.326,273.915L752.343,290.625L758.402,273.915L762.596,273.915L754.356,295.342L750.33,295.342L742.133,273.915Z" style="fill:#160d1c;fill-rule:nonzero;"/><path d="M766.055,284.649C766.055,282.469 766.355,280.62 766.957,279.104C767.558,277.587 768.375,276.452 769.41,275.697C770.444,274.942 771.503,274.407 772.586,274.093C773.669,273.778 774.857,273.621 776.15,273.621C777.443,273.621 778.631,273.778 779.714,274.093C780.798,274.407 781.856,274.942 782.891,275.697C783.925,276.452 784.743,277.587 785.344,279.104C785.945,280.62 786.245,282.469 786.245,284.649C786.245,286.83 785.945,288.678 785.344,290.195C784.743,291.711 783.925,292.847 782.891,293.602C781.856,294.357 780.798,294.891 779.714,295.206C778.631,295.52 777.443,295.677 776.15,295.677C774.857,295.677 773.669,295.52 772.586,295.206C771.503,294.891 770.444,294.357 769.41,293.602C768.375,292.847 767.558,291.711 766.957,290.195C766.355,288.678 766.055,286.83 766.055,284.649ZM770.018,284.649C770.018,286.257 770.175,287.581 770.489,288.622C770.804,289.664 771.276,290.436 771.905,290.939C772.533,291.442 773.169,291.778 773.812,291.945C774.455,292.113 775.235,292.197 776.15,292.197C777.066,292.197 777.845,292.113 778.488,291.945C779.131,291.778 779.767,291.442 780.396,290.939C781.025,290.436 781.497,289.664 781.811,288.622C782.125,287.581 782.283,286.257 782.283,284.649C782.283,283.042 782.125,281.718 781.811,280.676C781.497,279.635 781.025,278.863 780.396,278.359C779.767,277.856 779.131,277.521 778.488,277.353C777.845,277.185 777.066,277.101 776.15,277.101C775.235,277.101 774.455,277.185 773.812,277.353C773.169,277.521 772.533,277.856 771.905,278.359C771.276,278.863 770.804,279.635 770.489,280.676C770.175,281.718 770.018,283.042 770.018,284.649Z" style="fill:#160d1c;fill-rule:nonzero;"/></g><path d="M2145,1932.15C2174.15,1932.15 2197.85,1955.83 2197.85,1985.01C2197.85,2014.16 2174.15,2037.86 2145,2037.86C2115.85,2037.86 2092.17,2014.16 2092.17,1985.01C2092.17,1955.83 2115.85,1932.15 2145,1932.15" style="fill:#160d1c;fill-rule:nonzero;"/></svg>